<mxfile host="app.diagrams.net" modified="2021-11-29T02:26:14.582Z" agent="5.0 (Macintosh; Intel Mac OS X 10_15_7) AppleWebKit/537.36 (KHTML, like Gecko) Chrome/96.0.4664.55 Safari/537.36" etag="h6mpND8B1QUD5WyYlQEt" version="15.8.6" type="github">
  <diagram id="0GiVxWazIqdoX9tu2TJU" name="Page-1">
    <mxGraphModel dx="1554" dy="841" grid="1" gridSize="10" guides="1" tooltips="1" connect="1" arrows="1" fold="1" page="1" pageScale="1" pageWidth="827" pageHeight="1169" math="0" shadow="0">
      <root>
        <mxCell id="0" />
        <mxCell id="1" parent="0" />
        <mxCell id="v5tiwM8_qPNcchNK7BCx-10" value="" style="group" vertex="1" connectable="0" parent="1">
          <mxGeometry x="60" y="150" width="210" height="170" as="geometry" />
        </mxCell>
        <mxCell id="v5tiwM8_qPNcchNK7BCx-6" value="" style="rounded=0;whiteSpace=wrap;html=1;" vertex="1" parent="v5tiwM8_qPNcchNK7BCx-10">
          <mxGeometry width="210" height="170" as="geometry" />
        </mxCell>
        <mxCell id="v5tiwM8_qPNcchNK7BCx-7" value="" style="group" vertex="1" connectable="0" parent="v5tiwM8_qPNcchNK7BCx-10">
          <mxGeometry x="30" y="50" width="140" height="80" as="geometry" />
        </mxCell>
        <mxCell id="v5tiwM8_qPNcchNK7BCx-3" value="台球桌" style="rounded=0;whiteSpace=wrap;html=1;" vertex="1" parent="v5tiwM8_qPNcchNK7BCx-7">
          <mxGeometry width="120" height="60" as="geometry" />
        </mxCell>
        <mxCell id="v5tiwM8_qPNcchNK7BCx-4" value="台球桌" style="rounded=0;whiteSpace=wrap;html=1;" vertex="1" parent="v5tiwM8_qPNcchNK7BCx-7">
          <mxGeometry x="10" y="10" width="120" height="60" as="geometry" />
        </mxCell>
        <mxCell id="v5tiwM8_qPNcchNK7BCx-5" value="台球桌" style="rounded=0;whiteSpace=wrap;html=1;" vertex="1" parent="v5tiwM8_qPNcchNK7BCx-7">
          <mxGeometry x="20" y="20" width="120" height="60" as="geometry" />
        </mxCell>
        <mxCell id="v5tiwM8_qPNcchNK7BCx-8" value="台球店" style="text;html=1;strokeColor=none;fillColor=none;align=center;verticalAlign=middle;whiteSpace=wrap;rounded=0;" vertex="1" parent="v5tiwM8_qPNcchNK7BCx-10">
          <mxGeometry width="60" height="30" as="geometry" />
        </mxCell>
        <mxCell id="v5tiwM8_qPNcchNK7BCx-13" value="" style="group" vertex="1" connectable="0" parent="1">
          <mxGeometry x="300" y="150" width="210" height="170" as="geometry" />
        </mxCell>
        <mxCell id="v5tiwM8_qPNcchNK7BCx-14" value="" style="rounded=0;whiteSpace=wrap;html=1;" vertex="1" parent="v5tiwM8_qPNcchNK7BCx-13">
          <mxGeometry width="210" height="170" as="geometry" />
        </mxCell>
        <mxCell id="v5tiwM8_qPNcchNK7BCx-15" value="" style="group" vertex="1" connectable="0" parent="v5tiwM8_qPNcchNK7BCx-13">
          <mxGeometry x="30" y="50" width="140" height="80" as="geometry" />
        </mxCell>
        <mxCell id="v5tiwM8_qPNcchNK7BCx-16" value="台球桌" style="rounded=0;whiteSpace=wrap;html=1;" vertex="1" parent="v5tiwM8_qPNcchNK7BCx-15">
          <mxGeometry width="120" height="60" as="geometry" />
        </mxCell>
        <mxCell id="v5tiwM8_qPNcchNK7BCx-17" value="台球桌" style="rounded=0;whiteSpace=wrap;html=1;" vertex="1" parent="v5tiwM8_qPNcchNK7BCx-15">
          <mxGeometry x="10" y="10" width="120" height="60" as="geometry" />
        </mxCell>
        <mxCell id="v5tiwM8_qPNcchNK7BCx-18" value="台球桌" style="rounded=0;whiteSpace=wrap;html=1;" vertex="1" parent="v5tiwM8_qPNcchNK7BCx-15">
          <mxGeometry x="20" y="20" width="120" height="60" as="geometry" />
        </mxCell>
        <mxCell id="v5tiwM8_qPNcchNK7BCx-19" value="台球店" style="text;html=1;strokeColor=none;fillColor=none;align=center;verticalAlign=middle;whiteSpace=wrap;rounded=0;" vertex="1" parent="v5tiwM8_qPNcchNK7BCx-13">
          <mxGeometry width="60" height="30" as="geometry" />
        </mxCell>
        <mxCell id="v5tiwM8_qPNcchNK7BCx-20" value="" style="group" vertex="1" connectable="0" parent="1">
          <mxGeometry x="530" y="150" width="210" height="170" as="geometry" />
        </mxCell>
        <mxCell id="v5tiwM8_qPNcchNK7BCx-21" value="" style="rounded=0;whiteSpace=wrap;html=1;" vertex="1" parent="v5tiwM8_qPNcchNK7BCx-20">
          <mxGeometry width="210" height="170" as="geometry" />
        </mxCell>
        <mxCell id="v5tiwM8_qPNcchNK7BCx-22" value="" style="group" vertex="1" connectable="0" parent="v5tiwM8_qPNcchNK7BCx-20">
          <mxGeometry x="30" y="50" width="140" height="80" as="geometry" />
        </mxCell>
        <mxCell id="v5tiwM8_qPNcchNK7BCx-23" value="台球桌" style="rounded=0;whiteSpace=wrap;html=1;" vertex="1" parent="v5tiwM8_qPNcchNK7BCx-22">
          <mxGeometry width="120" height="60" as="geometry" />
        </mxCell>
        <mxCell id="v5tiwM8_qPNcchNK7BCx-24" value="台球桌" style="rounded=0;whiteSpace=wrap;html=1;" vertex="1" parent="v5tiwM8_qPNcchNK7BCx-22">
          <mxGeometry x="10" y="10" width="120" height="60" as="geometry" />
        </mxCell>
        <mxCell id="v5tiwM8_qPNcchNK7BCx-25" value="台球桌" style="rounded=0;whiteSpace=wrap;html=1;" vertex="1" parent="v5tiwM8_qPNcchNK7BCx-22">
          <mxGeometry x="20" y="20" width="120" height="60" as="geometry" />
        </mxCell>
        <mxCell id="v5tiwM8_qPNcchNK7BCx-26" value="台球店" style="text;html=1;strokeColor=none;fillColor=none;align=center;verticalAlign=middle;whiteSpace=wrap;rounded=0;" vertex="1" parent="v5tiwM8_qPNcchNK7BCx-20">
          <mxGeometry width="60" height="30" as="geometry" />
        </mxCell>
        <mxCell id="v5tiwM8_qPNcchNK7BCx-27" value="" style="rounded=0;whiteSpace=wrap;html=1;" vertex="1" parent="1">
          <mxGeometry x="60" y="390" width="680" height="100" as="geometry" />
        </mxCell>
        <mxCell id="v5tiwM8_qPNcchNK7BCx-28" value="" style="rounded=0;whiteSpace=wrap;html=1;" vertex="1" parent="1">
          <mxGeometry x="60" y="560" width="680" height="100" as="geometry" />
        </mxCell>
        <mxCell id="v5tiwM8_qPNcchNK7BCx-29" value="" style="shape=flexArrow;endArrow=classic;startArrow=classic;html=1;rounded=0;exitX=0.113;exitY=0.01;exitDx=0;exitDy=0;exitPerimeter=0;" edge="1" parent="1" source="v5tiwM8_qPNcchNK7BCx-28">
          <mxGeometry width="100" height="100" relative="1" as="geometry">
            <mxPoint x="40" y="610" as="sourcePoint" />
            <mxPoint x="137" y="490" as="targetPoint" />
          </mxGeometry>
        </mxCell>
        <mxCell id="v5tiwM8_qPNcchNK7BCx-30" value="" style="shape=flexArrow;endArrow=classic;startArrow=classic;html=1;rounded=0;exitX=0.113;exitY=0.01;exitDx=0;exitDy=0;exitPerimeter=0;" edge="1" parent="1">
          <mxGeometry width="100" height="100" relative="1" as="geometry">
            <mxPoint x="634.5" y="560" as="sourcePoint" />
            <mxPoint x="634.6600000000001" y="489" as="targetPoint" />
          </mxGeometry>
        </mxCell>
        <mxCell id="v5tiwM8_qPNcchNK7BCx-32" value="" style="shape=flexArrow;endArrow=classic;startArrow=classic;html=1;rounded=0;exitX=0.113;exitY=0.01;exitDx=0;exitDy=0;exitPerimeter=0;" edge="1" parent="1">
          <mxGeometry width="100" height="100" relative="1" as="geometry">
            <mxPoint x="634.5" y="390" as="sourcePoint" />
            <mxPoint x="634.6599999999999" y="319" as="targetPoint" />
          </mxGeometry>
        </mxCell>
        <mxCell id="v5tiwM8_qPNcchNK7BCx-33" value="" style="shape=flexArrow;endArrow=classic;startArrow=classic;html=1;rounded=0;exitX=0.113;exitY=0.01;exitDx=0;exitDy=0;exitPerimeter=0;" edge="1" parent="1">
          <mxGeometry width="100" height="100" relative="1" as="geometry">
            <mxPoint x="140" y="391" as="sourcePoint" />
            <mxPoint x="140.15999999999985" y="320" as="targetPoint" />
          </mxGeometry>
        </mxCell>
        <mxCell id="v5tiwM8_qPNcchNK7BCx-34" value="Java服务" style="rounded=1;whiteSpace=wrap;html=1;" vertex="1" parent="1">
          <mxGeometry x="100" y="410" width="120" height="60" as="geometry" />
        </mxCell>
        <mxCell id="v5tiwM8_qPNcchNK7BCx-35" value="Java服务" style="rounded=1;whiteSpace=wrap;html=1;" vertex="1" parent="1">
          <mxGeometry x="330" y="410" width="120" height="60" as="geometry" />
        </mxCell>
        <mxCell id="v5tiwM8_qPNcchNK7BCx-36" value="Java服务" style="rounded=1;whiteSpace=wrap;html=1;" vertex="1" parent="1">
          <mxGeometry x="575" y="410" width="120" height="60" as="geometry" />
        </mxCell>
        <mxCell id="v5tiwM8_qPNcchNK7BCx-37" value="WebSocket" style="text;html=1;strokeColor=none;fillColor=none;align=center;verticalAlign=middle;whiteSpace=wrap;rounded=0;" vertex="1" parent="1">
          <mxGeometry x="170" y="340" width="60" height="30" as="geometry" />
        </mxCell>
        <mxCell id="v5tiwM8_qPNcchNK7BCx-38" value="WebSocket" style="text;html=1;strokeColor=none;fillColor=none;align=center;verticalAlign=middle;whiteSpace=wrap;rounded=0;" vertex="1" parent="1">
          <mxGeometry x="550" y="340" width="60" height="30" as="geometry" />
        </mxCell>
        <mxCell id="v5tiwM8_qPNcchNK7BCx-39" value="HTTPS" style="text;html=1;strokeColor=none;fillColor=none;align=center;verticalAlign=middle;whiteSpace=wrap;rounded=0;" vertex="1" parent="1">
          <mxGeometry x="150" y="510" width="60" height="30" as="geometry" />
        </mxCell>
        <mxCell id="v5tiwM8_qPNcchNK7BCx-40" value="HTTPS" style="text;html=1;strokeColor=none;fillColor=none;align=center;verticalAlign=middle;whiteSpace=wrap;rounded=0;" vertex="1" parent="1">
          <mxGeometry x="560" y="510" width="60" height="30" as="geometry" />
        </mxCell>
        <mxCell id="v5tiwM8_qPNcchNK7BCx-41" value="User1" style="shape=umlActor;verticalLabelPosition=bottom;verticalAlign=top;html=1;outlineConnect=0;" vertex="1" parent="1">
          <mxGeometry x="120" y="580" width="30" height="60" as="geometry" />
        </mxCell>
        <mxCell id="v5tiwM8_qPNcchNK7BCx-42" value="User2" style="shape=umlActor;verticalLabelPosition=bottom;verticalAlign=top;html=1;outlineConnect=0;" vertex="1" parent="1">
          <mxGeometry x="270" y="580" width="30" height="60" as="geometry" />
        </mxCell>
        <mxCell id="v5tiwM8_qPNcchNK7BCx-43" value="User3" style="shape=umlActor;verticalLabelPosition=bottom;verticalAlign=top;html=1;outlineConnect=0;" vertex="1" parent="1">
          <mxGeometry x="440" y="580" width="30" height="60" as="geometry" />
        </mxCell>
        <mxCell id="v5tiwM8_qPNcchNK7BCx-44" value="User4" style="shape=umlActor;verticalLabelPosition=bottom;verticalAlign=top;html=1;outlineConnect=0;" vertex="1" parent="1">
          <mxGeometry x="630" y="580" width="30" height="60" as="geometry" />
        </mxCell>
      </root>
    </mxGraphModel>
  </diagram>
</mxfile>
